<svg aria-hidden="true" style="position: absolute; width: 0; height: 0; overflow: hidden;" version="1.1" xmlns="http://www.w3.org/2000/svg" xmlns:xlink="http://www.w3.org/1999/xlink">
    <defs>
        <symbol id="icon-envelope" viewBox="0 0 43 32">
            <path d="M38.667 0h-34.667c-2.206 0-4 1.794-4 4v24c0 2.206 1.794 4 4 4h34.667c2.206 0 4-1.794 4-4v-24c0-2.206-1.794-4-4-4v0zM38.667 2.667c0.181 0 0.353 0.038 0.511 0.103l-17.844 15.466-17.844-15.466c0.158-0.066 0.33-0.103 0.511-0.103h34.667zM38.667 29.333h-34.667c-0.736 0-1.333-0.598-1.333-1.333v-22.413l17.793 15.421c0.251 0.217 0.563 0.326 0.874 0.326s0.622-0.108 0.874-0.326l17.793-15.421v22.413c0 0.736-0.598 1.333-1.333 1.333v0z"></path>
        </symbol>
        <symbol id="icon-smartphone" viewBox="0 0 20 32">
            <path d="M17 0h-14c-1.654 0-3 1.346-3 3v26c0 1.654 1.346 3 3 3h14c1.654 0 3-1.346 3-3v-26c0-1.654-1.346-3-3-3zM3 2h14c0.552 0 1 0.448 1 1v21h-16v-21c0-0.552 0.448-1 1-1zM17 30h-14c-0.552 0-1-0.448-1-1v-3h16v3c0 0.552-0.448 1-1 1z"></path>
            <path d="M4.707 27.478c0.391 0.365 0.391 0.956 0 1.321s-1.024 0.365-1.414 0c-0.391-0.365-0.391-0.956 0-1.321s1.024-0.365 1.414 0z"></path>
        </symbol>
        <symbol id="icon-antenna" viewBox="0 0 32 32">
            <path fill="#212121" style="fill: var(--color1, #212121)" d="M30.773 22.098l-8.443-8.505 0.937-4.615c0.242 0.094 0.499 0.144 0.758 0.146h0.006c1.192 0.014 2.17-0.941 2.184-2.133s-0.941-2.17-2.133-2.184c-1.192-0.014-2.17 0.941-2.184 2.133-0.003 0.255 0.039 0.509 0.125 0.749l-4.96 0.605-8.091-8.133c-0.099-0.101-0.235-0.159-0.377-0.16-0.14 0.001-0.274 0.056-0.373 0.155l-1.513 1.504c-0.208 0.208-0.208 0.546 0 0.754l0.814 0.826c-3.153 5.798-2.129 12.978 2.519 17.663 0.043 0.041 0.092 0.074 0.146 0.098-0.034 0.18-0.051 0.364-0.052 0.547v6.187h-6.4c-1.472 0.002-2.665 1.195-2.667 2.667v1.067c0 0.295 0.239 0.533 0.533 0.533h24.533c0.295 0 0.533-0.239 0.533-0.533v-1.067c-0.002-1.472-1.195-2.665-2.667-2.667h-6.4v-2.742c1.003 0.21 2.024 0.317 3.049 0.32 2.458-0.003 4.877-0.615 7.040-1.783l0.818 0.823c0.099 0.101 0.235 0.159 0.377 0.16 0.14-0.001 0.274-0.056 0.373-0.155l1.513-1.504c0.208-0.208 0.208-0.546 0-0.754zM23.28 6.233c0.418-0.415 1.093-0.414 1.508 0.004s0.414 1.093-0.004 1.508c-0.2 0.199-0.47 0.31-0.752 0.31h-0.003c-0.589-0.003-1.064-0.483-1.061-1.072 0.002-0.282 0.115-0.552 0.314-0.751h-0.002zM22.024 9.738l-0.598 2.946-1.175-1.182 1.774-1.763zM21.419 8.836l-1.92 1.909-1.485-1.493 3.405-0.415zM24.004 28.8c0.884 0 1.6 0.716 1.6 1.6v0.533h-23.467v-0.533c0-0.884 0.716-1.6 1.6-1.6h20.267zM16.537 26.667v1.067h-5.333v-1.067h5.333zM11.204 25.6v-4.053c0-1.294 1.196-2.347 2.667-2.347s2.667 1.053 2.667 2.347v4.053h-5.333zM17.604 23.904v-2.357c0-1.882-1.675-3.413-3.733-3.413-1.331-0.020-2.576 0.657-3.281 1.786-4.058-4.274-4.971-10.645-2.279-15.887l18.602 18.708c-2.872 1.461-6.165 1.873-9.309 1.163zM28.893 23.22l-21.057-21.181 0.755-0.752 7.935 7.98c0.004 0 0.006 0.007 0.010 0.010l13.115 13.191-0.757 0.752z"></path>
            <path fill="#2196f3" style="fill: var(--color2, #2196f3)" d="M13.876 20.267h-0.005c-0.884-0.001-1.601 0.714-1.602 1.598s0.714 1.601 1.598 1.602h0.005c0.884 0.001 1.601-0.714 1.602-1.598s-0.714-1.601-1.598-1.602zM14.249 22.245c-0.1 0.1-0.236 0.156-0.378 0.155-0.295-0.002-0.532-0.242-0.531-0.536 0.001-0.141 0.057-0.276 0.157-0.375s0.233-0.154 0.373-0.155c0.295 0.002 0.532 0.241 0.53 0.536-0.001 0.141-0.057 0.276-0.157 0.375h0.005z"></path>
        </symbol>
        <symbol id="icon-clock" viewBox="0 0 32 32">
            <path fill="#212121" style="fill: var(--color1, #212121)" d="M31.297 15.301c-0.002-8.452-6.855-15.303-15.308-15.301s-15.303 6.855-15.301 15.308c0.001 6.658 4.307 12.551 10.649 14.576 0.061 0.019 0.124 0.029 0.187 0.029 0.121-0 0.239-0.032 0.342-0.094 0.135-0.080 0.236-0.207 0.283-0.356l3.865-12.25c1.057-0.005 1.909-0.866 1.903-1.923s-0.866-1.909-1.923-1.903c-0.284 0.001-0.565 0.067-0.82 0.191l-5.106-5.107c-0.253-0.245-0.657-0.238-0.902 0.016-0.239 0.247-0.239 0.639 0 0.886l5.103 5.109c-0.392 0.799-0.168 1.764 0.536 2.309l-3.683 11.673c-7.278-2.681-11.004-10.754-8.323-18.032s10.754-11.004 18.032-8.323 11.004 10.754 8.323 18.032c-1.31 3.556-4.001 6.431-7.462 7.973l-0.398-1.874c-0.073-0.344-0.411-0.565-0.756-0.492-0.109 0.023-0.209 0.074-0.292 0.148l-3.837 3.426c-0.263 0.234-0.287 0.637-0.052 0.9 0.076 0.085 0.174 0.149 0.283 0.184l4.899 1.563c0.335 0.108 0.694-0.077 0.802-0.412 0.034-0.106 0.040-0.219 0.017-0.328l-0.391-1.839c5.664-2.388 9.342-7.942 9.329-14.089zM15.992 14.664c0.352 0 0.638 0.286 0.638 0.638s-0.286 0.638-0.638 0.638c-0.352 0-0.638-0.285-0.638-0.638s0.285-0.638 0.638-0.638zM18.093 29.528l2.184-1.948 0.603 2.84-2.787-0.892z"></path>
            <path fill="#2196f3" style="fill: var(--color2, #2196f3)" d="M15.354 3.185v1.275c0 0.352 0.285 0.638 0.638 0.638s0.638-0.285 0.638-0.638v-1.275c0-0.352-0.286-0.638-0.638-0.638s-0.638 0.286-0.638 0.638z"></path>
            <path fill="#2196f3" style="fill: var(--color2, #2196f3)" d="M3.876 14.664c-0.352 0-0.638 0.286-0.638 0.638s0.285 0.638 0.638 0.638h1.275c0.352 0 0.638-0.285 0.638-0.638s-0.285-0.638-0.638-0.638h-1.275z"></path>
            <path fill="#2196f3" style="fill: var(--color2, #2196f3)" d="M28.108 15.939c0.352 0 0.638-0.285 0.638-0.638s-0.285-0.638-0.638-0.638h-1.275c-0.352 0-0.638 0.286-0.638 0.638s0.286 0.638 0.638 0.638h1.275z"></path>
        </symbol>
        <symbol id="icon-diagram" viewBox="0 0 32 32">
            <path fill="#2196f3" style="fill: var(--color2, #2196f3)" d="M14.926 14.965h1.066v4.798h-1.066v-4.797z"></path>
            <path fill="#2196f3" style="fill: var(--color2, #2196f3)" d="M19.19 17.097h1.066v2.665h-1.066v-2.665z"></path>
            <path fill="#2196f3" style="fill: var(--color2, #2196f3)" d="M10.661 18.696h1.066v1.066h-1.066v-1.066z"></path>
            <path fill="#2196f3" style="fill: var(--color2, #2196f3)" d="M7.463 18.163h1.066v1.599h-1.066v-1.599z"></path>
            <path fill="#212121" style="fill: var(--color1, #212121)" d="M1.599 28.291h25.587c0.883 0 1.599-0.716 1.599-1.599v-2.132c0-0.883-0.716-1.599-1.599-1.599h-0.533v-13.293l3.028-2.868c0.703 0.346 1.553 0.136 2.013-0.499s0.396-1.508-0.152-2.068-1.42-0.644-2.065-0.198c-0.644 0.446-0.873 1.292-0.542 2.002l-2.281 2.163v-1.23c0-0.883-0.716-1.599-1.599-1.599h-21.322c-0.883 0-1.599 0.716-1.599 1.599v15.992h-0.533c-0.883 0-1.599 0.716-1.599 1.599v2.132c0 0.883 0.716 1.599 1.599 1.599zM30.384 4.837c0.294 0 0.533 0.239 0.533 0.533s-0.239 0.533-0.533 0.533c-0.294 0-0.533-0.239-0.533-0.533s0.239-0.533 0.533-0.533zM3.198 6.969c0-0.294 0.239-0.533 0.533-0.533h21.322c0.294 0 0.533 0.239 0.533 0.533v2.239l-1.066 1.013v-2.186c0-0.294-0.239-0.533-0.533-0.533h-19.19c-0.294 0-0.533 0.239-0.533 0.533v13.326c0 0.294 0.239 0.533 0.533 0.533h19.19c0.294 0 0.533-0.239 0.533-0.533v-9.674l1.066-1.010v12.284h-22.388v-15.992zM7.996 13.899c-0.721-0.002-1.354 0.478-1.546 1.174s0.105 1.433 0.725 1.801c0.62 0.368 1.41 0.276 1.928-0.226l1.853 0.93c0.215 0.108 0.476 0.057 0.636-0.123l3.939-4.431 3.872 2.901c0.208 0.156 0.498 0.139 0.686-0.039l3.365-3.188v8.131h-18.124v-12.26h18.124v2.66l-3.771 3.572-3.904-2.927c-0.222-0.166-0.534-0.135-0.718 0.072l-3.993 4.493-1.493-0.746c0.011-0.064 0.018-0.129 0.020-0.193 0-0.883-0.716-1.599-1.599-1.599zM8.529 15.498c0 0.294-0.239 0.533-0.533 0.533s-0.533-0.239-0.533-0.533c0-0.294 0.239-0.533 0.533-0.533s0.533 0.239 0.533 0.533zM11.727 24.026h5.331v0.533c0 0.294-0.239 0.533-0.533 0.533h-4.264c-0.294 0-0.533-0.239-0.533-0.533v-0.533zM1.066 24.56c0-0.294 0.239-0.533 0.533-0.533h9.062v0.533c0 0.883 0.716 1.599 1.599 1.599h4.264c0.883 0 1.599-0.716 1.599-1.599v-0.533h9.062c0.294 0 0.533 0.239 0.533 0.533v2.132c0 0.294-0.239 0.533-0.533 0.533h-25.587c-0.294 0-0.533-0.239-0.533-0.533v-2.132z"></path>
        </symbol>
        <symbol id="icon-astronaut" viewBox="0 0 32 32">
            <path fill="#2196f3" style="fill: var(--color2, #2196f3)" d="M31.974 4.524c-0.063-0.193-0.229-0.333-0.43-0.363l-1.91-0.278-0.855-1.731c-0.179-0.365-0.777-0.365-0.956 0l-0.855 1.731-1.91 0.278c-0.201 0.029-0.367 0.17-0.431 0.363-0.062 0.193-0.011 0.405 0.135 0.547l1.383 1.348-0.326 1.903c-0.034 0.2 0.048 0.402 0.212 0.522 0.166 0.121 0.382 0.135 0.562 0.040l1.709-0.899 1.709 0.899c0.078 0.041 0.164 0.061 0.249 0.061 0.11 0 0.221-0.034 0.314-0.102 0.164-0.119 0.246-0.322 0.212-0.522l-0.326-1.903 1.383-1.348c0.145-0.142 0.197-0.354 0.135-0.547zM29.511 5.851c-0.125 0.122-0.183 0.299-0.153 0.472l0.191 1.114-1-0.526c-0.078-0.041-0.163-0.061-0.249-0.061s-0.17 0.020-0.249 0.061l-1.001 0.526 0.191-1.114c0.030-0.173-0.028-0.349-0.153-0.472l-0.81-0.789 1.119-0.163c0.174-0.025 0.324-0.134 0.402-0.292l0.5-1.013 0.5 1.013c0.078 0.157 0.228 0.267 0.402 0.292l1.119 0.163-0.809 0.789z"></path>
            <path fill="#2196f3" style="fill: var(--color2, #2196f3)" d="M26.134 20.522h-1.067v1.067h1.067v-1.067z"></path>
            <path fill="#2196f3" style="fill: var(--color2, #2196f3)" d="M26.134 22.656h-1.067v1.067h1.067v-1.067z"></path>
            <path fill="#2196f3" style="fill: var(--color2, #2196f3)" d="M27.2 21.589h-1.067v1.067h1.067v-1.067z"></path>
            <path fill="#2196f3" style="fill: var(--color2, #2196f3)" d="M25.067 21.589h-1.067v1.067h1.067v-1.067z"></path>
            <path fill="#2196f3" style="fill: var(--color2, #2196f3)" d="M22.4 26.389h-1.067v1.067h1.067v-1.067z"></path>
            <path fill="#2196f3" style="fill: var(--color2, #2196f3)" d="M22.4 28.522h-1.067v1.067h1.067v-1.067z"></path>
            <path fill="#2196f3" style="fill: var(--color2, #2196f3)" d="M23.467 27.456h-1.067v1.067h1.067v-1.067z"></path>
            <path fill="#2196f3" style="fill: var(--color2, #2196f3)" d="M21.333 27.456h-1.067v1.067h1.067v-1.067z"></path>
            <path fill="#2196f3" style="fill: var(--color2, #2196f3)" d="M16 24.256h-1.067v1.067h1.067v-1.067z"></path>
            <path fill="#2196f3" style="fill: var(--color2, #2196f3)" d="M16 26.389h-1.067v1.067h1.067v-1.067z"></path>
            <path fill="#2196f3" style="fill: var(--color2, #2196f3)" d="M17.067 25.322h-1.067v1.067h1.067v-1.067z"></path>
            <path fill="#2196f3" style="fill: var(--color2, #2196f3)" d="M14.933 25.322h-1.067v1.067h1.067v-1.067z"></path>
            <path fill="#2196f3" style="fill: var(--color2, #2196f3)" d="M5.867 6.122h-1.067v1.067h1.067v-1.067z"></path>
            <path fill="#2196f3" style="fill: var(--color2, #2196f3)" d="M5.867 8.255h-1.067v1.067h1.067v-1.067z"></path>
            <path fill="#2196f3" style="fill: var(--color2, #2196f3)" d="M6.933 7.189h-1.067v1.067h1.067v-1.067z"></path>
            <path fill="#2196f3" style="fill: var(--color2, #2196f3)" d="M4.8 7.189h-1.067v1.067h1.067v-1.067z"></path>
            <path fill="#212121" style="fill: var(--color1, #212121)" d="M24.715 14.159c-0.287-0.388-0.709-0.637-1.188-0.705-0.481-0.068-0.956 0.058-1.34 0.352l-1.252 0.96-1.898 1.417-1.358-0.541c2.421-1.086 4.114-3.508 4.114-6.32 0-3.823-3.123-6.933-6.961-6.933s-6.961 3.11-6.961 6.933c0 1.386 0.414 2.674 1.12 3.758l-2.764-0.024c-0.002 0-0.003 0-0.005 0-0.009 0-0.015 0.004-0.023 0.005-0.053 0.002-0.105 0.013-0.155 0.031-0.013 0.005-0.026 0.008-0.038 0.013-0.006 0.003-0.013 0.003-0.019 0.006l-3.233 1.596c-0.001 0-0.001 0-0.001 0.001l-1.893 0.911c-0.021 0.009-0.042 0.021-0.063 0.035-0.755 0.502-1.012 1.489-0.598 2.295 0.22 0.429 0.595 0.745 1.056 0.889 0.178 0.055 0.359 0.083 0.539 0.083 0.29 0 0.577-0.071 0.839-0.211l1.388-0.738 2.264-1.169 1.357-0.008-5.442 5.416c-0.001 0.001-0.001 0.001-0.002 0.001l-1.339 1.333c-0.316 0.315-0.49 0.732-0.49 1.178s0.174 0.863 0.49 1.179c0.325 0.323 0.752 0.485 1.179 0.485s0.854-0.162 1.18-0.485l1.314-1.309 1.741-1.3 0.901 0.897-1.762 1.754c-0 0.001-0.001 0.001-0.002 0.001l-1.339 1.333c-0.316 0.315-0.49 0.732-0.49 1.178s0.174 0.863 0.49 1.179c0.325 0.323 0.753 0.485 1.18 0.485s0.855-0.162 1.18-0.485l3.482-3.467c0.001-0.001 0.001-0.001 0.001-0.002l1.010-1-0.004-0.004c0.006-0.006 0.015-0.009 0.022-0.015l5.166-5.658 3.471 0.494c0.025 0.004 0.050 0.005 0.075 0.005 0.065 0 0.127-0.015 0.187-0.038 0.018-0.006 0.033-0.015 0.050-0.023 0.019-0.010 0.039-0.015 0.058-0.027l3.213-2.133c0.012-0.008 0.018-0.021 0.029-0.029 0.013-0.010 0.029-0.014 0.041-0.026l1.271-1.191c0.662-0.62 0.753-1.635 0.212-2.362zM2.13 17.77c-0.173 0.093-0.37 0.111-0.558 0.052-0.187-0.058-0.338-0.186-0.427-0.358-0.161-0.314-0.068-0.695 0.214-0.902l1.314-0.632 0.449 1.313-0.992 0.527zM5.628 15.942l-1.548 0.8-0.439-1.283 2.027-1.001-0.040 1.484zM20.727 9.322c0 0.918-0.219 1.785-0.599 2.559l-4.181-1.899c-0.044-0.573-0.341-1.075-0.788-1.388l1.464-4.86c2.378 0.756 4.105 2.974 4.105 5.588zM8.938 9.322c0-3.235 2.644-5.867 5.894-5.867 0.253 0 0.5 0.021 0.745 0.052l-1.432 4.754c-0.019-0.001-0.037-0.006-0.057-0.006-1.033 0-1.873 0.837-1.873 1.867s0.84 1.867 1.873 1.867c0.694 0 1.294-0.383 1.618-0.945l3.862 1.755c-1.075 1.446-2.795 2.39-4.737 2.39-3.25 0-5.894-2.632-5.894-5.867zM14.894 10.122c0 0.441-0.362 0.8-0.806 0.8s-0.806-0.359-0.806-0.8c0-0.441 0.362-0.8 0.806-0.8s0.806 0.359 0.806 0.8zM2.465 25.146c-0.236 0.234-0.619 0.234-0.854 0.001-0.114-0.114-0.176-0.263-0.176-0.423s0.062-0.309 0.176-0.421l0.962-0.959 0.851 0.848-0.959 0.955zM5.679 28.88c-0.236 0.234-0.619 0.235-0.855 0.001-0.114-0.114-0.176-0.263-0.176-0.423s0.062-0.309 0.176-0.421l0.963-0.959 0.852 0.848-0.96 0.955zM9.16 25.411c-0.001 0-0.001 0-0.002 0.001l-1.765 1.76-0.852-0.848 1.763-1.755c0 0 0 0 0-0s0.001-0.001 0.002-0.001c0.040-0.040 0.065-0.088 0.090-0.135 0.007-0.014 0.020-0.026 0.026-0.040 0.017-0.041 0.019-0.085 0.026-0.129 0.003-0.025 0.014-0.047 0.014-0.073 0-0.036-0.013-0.070-0.020-0.106-0.006-0.032-0.006-0.065-0.019-0.095-0.020-0.050-0.055-0.094-0.091-0.138-0.010-0.012-0.014-0.027-0.025-0.038 0 0 0 0-0.001 0s-0.001-0.002-0.001-0.002l-1.607-1.6c-0.017-0.017-0.039-0.024-0.058-0.038-0.028-0.022-0.055-0.042-0.087-0.058-0.030-0.015-0.061-0.024-0.093-0.033-0.034-0.010-0.067-0.017-0.103-0.020-0.033-0.002-0.063 0.001-0.095 0.005-0.036 0.004-0.069 0.009-0.104 0.020-0.034 0.011-0.063 0.027-0.094 0.045-0.020 0.011-0.042 0.015-0.061 0.029l-1.773 1.324-0.901-0.897 2.399-2.386 4.361 4.289-0.928 0.919zM15.979 18.394c-0.015-0.002-0.030 0.004-0.045 0.003-0.039-0.002-0.076 0.001-0.115 0.007-0.030 0.005-0.059 0.011-0.088 0.021-0.034 0.012-0.065 0.028-0.097 0.047-0.030 0.018-0.057 0.037-0.083 0.061-0.013 0.011-0.028 0.017-0.040 0.029l-4.698 5.146-4.328-4.257 2.833-2.818c0.209-0.208 0.21-0.546 0.002-0.755-0.105-0.105-0.243-0.157-0.381-0.156v-0.001l-2.219 0.013 0.028-1.607 3.104 0.027c1.265 1.294 3.029 2.101 4.981 2.101 0.437 0 0.864-0.045 1.279-0.123 0.040 0.032 0.079 0.065 0.13 0.085l2.41 0.96 0.152 0.758 0.178 0.885-3.003-0.427zM20.020 18.572l-0.313-1.558 1.446-1.080 0.947 1.257-2.080 1.381zM23.774 15.741l-0.838 0.785-0.931-1.236 0.831-0.637c0.155-0.119 0.351-0.168 0.543-0.143 0.193 0.027 0.364 0.128 0.48 0.284 0.217 0.292 0.18 0.699-0.085 0.947z"></path>
            <path fill="#212121" style="fill: var(--color1, #212121)" d="M13.602 18.544l-2.143-2.133c-0.207-0.207-0.545-0.207-0.753 0l-2.142 2.133c-0.1 0.101-0.157 0.236-0.157 0.378s0.056 0.278 0.157 0.378l2.142 2.133c0.104 0.103 0.241 0.155 0.377 0.155s0.273-0.052 0.376-0.155l2.143-2.133c0.1-0.1 0.157-0.236 0.157-0.378s-0.057-0.278-0.157-0.378zM11.083 20.303l-1.387-1.381 1.387-1.381 1.387 1.381-1.387 1.381z"></path>
            <path fill="#212121" style="fill: var(--color1, #212121)" d="M17.164 5.071l-0.258 1.036c0.071 0.018 1.738 0.452 1.738 2.149h1.067c-0-2.017-1.666-2.965-2.547-3.185z"></path>
            <path fill="#212121" style="fill: var(--color1, #212121)" d="M19.711 9.322h-1.067v1.067h1.067v-1.067z"></path>
        </symbol>
        <symbol id="icon-instagram" viewBox="0 0 32 32">
            <path d="M31.969 9.408c-0.075-1.7-0.35-2.869-0.744-3.882-0.406-1.075-1.032-2.038-1.851-2.838-0.8-0.813-1.769-1.444-2.832-1.844-1.019-0.394-2.182-0.669-3.882-0.744-1.713-0.081-2.257-0.1-6.601-0.1s-4.888 0.019-6.595 0.094c-1.7 0.075-2.869 0.35-3.882 0.744-1.075 0.406-2.038 1.031-2.838 1.85-0.813 0.8-1.444 1.769-1.844 2.832-0.394 1.019-0.669 2.182-0.744 3.882-0.081 1.713-0.1 2.257-0.1 6.601s0.019 4.888 0.094 6.595c0.075 1.7 0.35 2.869 0.744 3.882 0.406 1.075 1.038 2.038 1.85 2.838 0.8 0.813 1.769 1.444 2.832 1.844 1.019 0.394 2.182 0.669 3.882 0.744 1.706 0.075 2.25 0.094 6.595 0.094s4.888-0.019 6.595-0.094c1.7-0.075 2.869-0.35 3.882-0.744 2.151-0.832 3.851-2.532 4.682-4.682 0.394-1.019 0.669-2.182 0.744-3.882 0.075-1.707 0.094-2.251 0.094-6.595s-0.006-4.888-0.081-6.595zM29.087 22.473c-0.069 1.563-0.331 2.407-0.55 2.969-0.538 1.394-1.644 2.5-3.038 3.038-0.563 0.219-1.413 0.481-2.969 0.55-1.688 0.075-2.194 0.094-6.464 0.094s-4.782-0.019-6.464-0.094c-1.563-0.069-2.407-0.331-2.969-0.55-0.694-0.256-1.325-0.663-1.838-1.194-0.531-0.519-0.938-1.144-1.194-1.838-0.219-0.563-0.481-1.413-0.55-2.969-0.075-1.688-0.094-2.194-0.094-6.464s0.019-4.782 0.094-6.464c0.069-1.563 0.331-2.407 0.55-2.969 0.256-0.694 0.663-1.325 1.2-1.838 0.519-0.531 1.144-0.938 1.838-1.194 0.563-0.219 1.413-0.481 2.969-0.55 1.688-0.075 2.194-0.094 6.464-0.094 4.276 0 4.782 0.019 6.464 0.094 1.563 0.069 2.407 0.331 2.969 0.55 0.694 0.256 1.325 0.662 1.838 1.194 0.531 0.519 0.938 1.144 1.194 1.838 0.219 0.563 0.481 1.413 0.55 2.969 0.075 1.688 0.094 2.194 0.094 6.464s-0.019 4.77-0.094 6.458z"></path>
            <path d="M16.059 7.783c-4.538 0-8.22 3.682-8.22 8.22s3.682 8.22 8.22 8.22c4.539 0 8.22-3.682 8.22-8.22s-3.682-8.22-8.22-8.22zM16.059 21.335c-2.944 0-5.332-2.388-5.332-5.332s2.388-5.332 5.332-5.332c2.944 0 5.332 2.388 5.332 5.332s-2.388 5.332-5.332 5.332z"></path>
            <path d="M26.524 7.458c0 1.060-0.859 1.919-1.919 1.919s-1.919-0.859-1.919-1.919c0-1.060 0.859-1.919 1.919-1.919s1.919 0.859 1.919 1.919z"></path>
        </symbol>
        <symbol id="icon-twitter" viewBox="0 0 32 32">
            <path d="M32 6.078c-1.19 0.522-2.458 0.868-3.78 1.036 1.36-0.812 2.398-2.088 2.886-3.626-1.268 0.756-2.668 1.29-4.16 1.588-1.204-1.282-2.92-2.076-4.792-2.076-3.632 0-6.556 2.948-6.556 6.562 0 0.52 0.044 1.020 0.152 1.496-5.454-0.266-10.28-2.88-13.522-6.862-0.566 0.982-0.898 2.106-0.898 3.316 0 2.272 1.17 4.286 2.914 5.452-1.054-0.020-2.088-0.326-2.964-0.808 0 0.020 0 0.046 0 0.072 0 3.188 2.274 5.836 5.256 6.446-0.534 0.146-1.116 0.216-1.72 0.216-0.42 0-0.844-0.024-1.242-0.112 0.85 2.598 3.262 4.508 6.13 4.57-2.232 1.746-5.066 2.798-8.134 2.798-0.538 0-1.054-0.024-1.57-0.090 2.906 1.874 6.35 2.944 10.064 2.944 12.072 0 18.672-10 18.672-18.668 0-0.29-0.010-0.57-0.024-0.848 1.302-0.924 2.396-2.078 3.288-3.406z"></path>
        </symbol>
        <symbol id="icon-facebook" viewBox="0 0 32 32">
            <path d="M21.329 5.313h2.921v-5.088c-0.504-0.069-2.237-0.225-4.256-0.225-4.212 0-7.097 2.649-7.097 7.519v4.481h-4.648v5.688h4.648v14.312h5.699v-14.311h4.46l0.708-5.688h-5.169v-3.919c0.001-1.644 0.444-2.769 2.735-2.769z"></path>
        </symbol>
        <symbol id="icon-linkedin" viewBox="0 0 32 32">
            <path d="M31.992 32v-0.001h0.008v-11.736c0-5.741-1.236-10.164-7.948-10.164-3.227 0-5.392 1.771-6.276 3.449h-0.093v-2.913h-6.364v21.364h6.627v-10.579c0-2.785 0.528-5.479 3.977-5.479 3.399 0 3.449 3.179 3.449 5.657v10.401h6.62z"></path>
            <path d="M0.528 10.636h6.635v21.364h-6.635v-21.364z"></path>
            <path d="M3.843 0c-2.121 0-3.843 1.721-3.843 3.843s1.721 3.879 3.843 3.879c2.121 0 3.843-1.757 3.843-3.879-0.001-2.121-1.723-3.843-3.843-3.843v0z"></path>
        </symbol>
        <symbol id="icon-client1" viewBox="0 0 32 32">
            <path d="M6.5 0.475l4.672 4.423-8.672-0.005v21.458h22.667v-8.204l4.667 4.418v-22.089h-23.333zM24.962 17.628l-13.247-12.54h13.247v12.54zM20.849 23.212h-14.762v-14.432h1.043v13.454h13.719v0.977zM9.573 29.208l-0.545 1.123-0.545-1.123h-0.457l0.796 1.497v0.872h0.413v-0.872l0.794-1.497h-0.456zM10.258 31.578l0.192-0.552h0.918l0.194 0.552h0.43l-0.897-2.37h-0.369l-0.895 2.37h0.428zM10.909 29.711l0.343 0.983h-0.687l0.343-0.983zM13.080 30.637c-0.060 0.091-0.090 0.192-0.090 0.301 0 0.2 0.070 0.362 0.21 0.487 0.141 0.124 0.329 0.186 0.563 0.186s0.436-0.063 0.605-0.19l0.133 0.158h0.459l-0.348-0.412c0.137-0.187 0.205-0.426 0.205-0.718h-0.343c0 0.16-0.033 0.304-0.099 0.435l-0.457-0.54 0.161-0.117c0.114-0.082 0.196-0.165 0.246-0.247 0.050-0.084 0.075-0.175 0.075-0.273 0-0.15-0.055-0.275-0.166-0.376-0.11-0.102-0.251-0.153-0.423-0.153-0.191 0-0.343 0.054-0.456 0.163-0.113 0.107-0.169 0.254-0.169 0.439 0 0.076 0.018 0.155 0.054 0.236 0.037 0.081 0.101 0.18 0.194 0.296-0.176 0.126-0.294 0.235-0.353 0.327zM14.149 31.161c-0.116 0.089-0.241 0.133-0.374 0.133-0.118 0-0.213-0.034-0.283-0.103s-0.106-0.157-0.106-0.267c0-0.127 0.065-0.24 0.195-0.339l0.050-0.036 0.518 0.61zM13.725 30.111c-0.112-0.138-0.168-0.252-0.168-0.343 0-0.079 0.023-0.145 0.068-0.197s0.107-0.078 0.184-0.078c0.072 0 0.131 0.022 0.177 0.067 0.047 0.043 0.070 0.096 0.070 0.158 0 0.093-0.034 0.17-0.101 0.23l-0.050 0.041-0.181 0.124zM17.582 31.399c0.163-0.142 0.256-0.34 0.28-0.592h-0.41c-0.022 0.169-0.073 0.29-0.155 0.363s-0.203 0.109-0.365 0.109c-0.177 0-0.311-0.067-0.404-0.202-0.091-0.135-0.137-0.33-0.137-0.586v-0.21c0.002-0.253 0.051-0.444 0.146-0.575 0.097-0.131 0.234-0.197 0.413-0.197 0.154 0 0.271 0.038 0.35 0.114 0.080 0.075 0.13 0.197 0.15 0.368h0.41c-0.026-0.259-0.119-0.46-0.278-0.602s-0.37-0.213-0.632-0.213c-0.194 0-0.366 0.046-0.514 0.138s-0.261 0.224-0.34 0.394-0.119 0.367-0.119 0.591v0.221c0.003 0.218 0.044 0.41 0.122 0.575s0.189 0.292 0.332 0.383c0.144 0.089 0.311 0.133 0.5 0.133 0.27 0 0.487-0.071 0.649-0.212zM20.002 31.067c0.080-0.176 0.12-0.38 0.12-0.612v-0.132c-0.001-0.231-0.042-0.433-0.124-0.607-0.081-0.175-0.197-0.308-0.347-0.4-0.149-0.093-0.32-0.14-0.513-0.14s-0.365 0.047-0.514 0.142c-0.149 0.093-0.264 0.228-0.347 0.405-0.081 0.177-0.122 0.381-0.122 0.612v0.133c0.001 0.227 0.042 0.427 0.124 0.601s0.199 0.308 0.348 0.402c0.151 0.093 0.322 0.14 0.514 0.14 0.194 0 0.366-0.047 0.514-0.14 0.15-0.094 0.265-0.229 0.345-0.404zM19.561 29.727c0.1 0.14 0.15 0.341 0.15 0.604v0.124c0 0.267-0.049 0.47-0.148 0.609-0.098 0.139-0.238 0.208-0.42 0.208-0.18 0-0.321-0.071-0.423-0.213s-0.151-0.343-0.151-0.604v-0.137c0.002-0.255 0.053-0.452 0.153-0.591 0.101-0.14 0.24-0.21 0.418-0.21 0.182 0 0.323 0.070 0.422 0.21z"></path>
        </symbol>
        <symbol id="icon-client2" viewBox="0 0 32 32">
            <path d="M14.333 2.202h-0.082c-0.127-0.008-0.254-0.011-0.38-0.014v0h-0.275c-0.24 0-0.484 0.006-0.727 0.018-0.018-0.001-0.037-0.001-0.055 0-2.2 0.125-4.356 0.675-6.349 1.62l-0.261 0.126v13.368l0.611-0.207c0.536-0.184 1.107-0.35 1.698-0.504 1.598-0.41 3.239-0.628 4.888-0.649v1.756c-0.218 0.002-0.431 0.008-0.643 0.018h-0.050c-1.269 0.070-2.528 0.263-3.76 0.577-1.56 0.391-3.065 0.977-4.48 1.746v-17.145c1.469-0.857 3.051-1.5 4.7-1.911 1.447-0.374 2.935-0.566 4.429-0.571h0.258c0.309 0.008 0.609 0.022 0.892 0.043 0.744 0.052 1.483 0.17 2.207 0.352v1.729c-0.703-0.164-1.418-0.272-2.138-0.322-0.015-0.001-0.029-0.002-0.044-0.004-0.149-0.013-0.298-0.025-0.437-0.025zM17.375 3.97c0.383 0.029 0.78 0.043 1.182 0.043 1.571-0.006 3.135-0.206 4.657-0.597 1.559-0.392 3.064-0.979 4.478-1.747v16.84c-1.47 0.856-3.053 1.5-4.701 1.912-1.448 0.372-2.935 0.564-4.429 0.57-1.132 0.009-2.261-0.124-3.36-0.396v-16.949c0.26 0.060 0.527 0.115 0.799 0.161 0.446 0.075 0.916 0.131 1.375 0.164zM25.945 4.1l-0.611 0.206c-0.562 0.189-1.129 0.358-1.698 0.508-1.659 0.426-3.363 0.645-5.075 0.651-0.399 0-0.765-0.011-1.12-0.034l-0.487-0.032v13.752l0.418 0.037c0.388 0.034 0.788 0.051 1.191 0.051 1.349-0.006 2.691-0.18 3.997-0.517 1.075-0.27 2.122-0.646 3.123-1.122l0.261-0.126v-13.373z"></path>
            <path d="M5.653 25.917c-0.088-0.091-0.194-0.163-0.311-0.21s-0.243-0.069-0.369-0.065c-0.134-0.002-0.268 0.023-0.393 0.074-0.114 0.046-0.218 0.114-0.305 0.201s-0.153 0.192-0.197 0.307c-0.048 0.121-0.072 0.249-0.070 0.379v2.291c-0.005 0.161 0.025 0.322 0.090 0.47 0.054 0.117 0.132 0.222 0.229 0.307 0.092 0.077 0.199 0.133 0.315 0.163 0.111 0.031 0.226 0.047 0.342 0.048 0.128 0.001 0.254-0.026 0.37-0.080 0.115-0.050 0.218-0.122 0.305-0.212 0.085-0.089 0.153-0.193 0.2-0.307 0.049-0.116 0.074-0.24 0.073-0.365v-0.256h-0.599v0.204c0.002 0.070-0.010 0.139-0.035 0.204-0.020 0.049-0.049 0.093-0.087 0.129-0.037 0.030-0.080 0.052-0.125 0.066-0.040 0.013-0.083 0.021-0.125 0.021-0.053 0.006-0.108-0.002-0.157-0.023s-0.092-0.056-0.124-0.099c-0.056-0.092-0.084-0.199-0.079-0.307v-2.136c-0.004-0.118 0.021-0.236 0.073-0.342 0.031-0.048 0.075-0.087 0.127-0.111s0.11-0.034 0.166-0.027c0.052-0.002 0.103 0.009 0.149 0.031s0.087 0.056 0.118 0.098c0.067 0.088 0.102 0.196 0.099 0.307v0.198h0.593v-0.233c0.001-0.137-0.024-0.273-0.073-0.401-0.044-0.12-0.112-0.23-0.2-0.322z"></path>
            <path d="M9.21 25.891c-0.191-0.161-0.432-0.25-0.681-0.252-0.122 0.001-0.243 0.022-0.357 0.064-0.116 0.042-0.224 0.105-0.316 0.187-0.099 0.089-0.178 0.199-0.232 0.321-0.060 0.14-0.090 0.291-0.087 0.444v2.197c-0.004 0.155 0.026 0.308 0.087 0.45 0.054 0.118 0.133 0.223 0.232 0.307 0.092 0.085 0.199 0.151 0.316 0.193 0.115 0.042 0.235 0.064 0.357 0.064s0.243-0.022 0.357-0.064c0.119-0.043 0.229-0.109 0.324-0.193 0.096-0.086 0.172-0.19 0.226-0.307 0.061-0.142 0.091-0.295 0.087-0.45v-2.197c0.003-0.152-0.027-0.304-0.087-0.444-0.053-0.121-0.13-0.23-0.226-0.321zM8.93 28.853c0.005 0.059-0.003 0.117-0.024 0.172s-0.053 0.105-0.095 0.145c-0.079 0.066-0.179 0.103-0.282 0.103s-0.203-0.036-0.282-0.103c-0.042-0.041-0.075-0.090-0.095-0.145s-0.029-0.114-0.024-0.172v-2.197c-0.005-0.059 0.003-0.117 0.024-0.172s0.053-0.105 0.095-0.145c0.079-0.066 0.179-0.103 0.282-0.103s0.203 0.036 0.282 0.103c0.042 0.041 0.075 0.090 0.095 0.145s0.029 0.114 0.024 0.172v2.197z"></path>
            <path d="M13.882 29.834v-4.159h-0.576l-0.756 2.202h-0.011l-0.762-2.202h-0.57v4.159h0.594v-2.53h0.011l0.582 1.789h0.296l0.586-1.789h0.011v2.53h0.594z"></path>
            <path d="M17.258 25.966c-0.092-0.103-0.207-0.181-0.336-0.227-0.139-0.045-0.285-0.067-0.431-0.064h-0.883v4.159h0.593v-1.624h0.305c0.185 0.008 0.369-0.031 0.535-0.114 0.135-0.075 0.247-0.185 0.325-0.318 0.069-0.111 0.115-0.234 0.136-0.362 0.023-0.157 0.034-0.315 0.032-0.473 0.006-0.2-0.014-0.399-0.058-0.594-0.040-0.144-0.115-0.275-0.218-0.382zM16.952 27.235c-0.003 0.075-0.021 0.149-0.055 0.216-0.034 0.064-0.087 0.115-0.153 0.146-0.088 0.039-0.184 0.057-0.28 0.052h-0.27v-1.414h0.305c0.092-0.005 0.184 0.013 0.267 0.052 0.061 0.035 0.11 0.089 0.139 0.154 0.032 0.073 0.050 0.152 0.052 0.232 0 0.088 0 0.18 0 0.276s0.006 0.197 0 0.286h-0.006z"></path>
            <path d="M20.065 25.675h-0.486l-0.916 4.159h0.593l0.174-0.894h0.808l0.174 0.894h0.593l-0.939-4.159zM19.518 28.374l0.292-1.508h0.011l0.29 1.508h-0.593z"></path>
            <path d="M23.894 28.18h-0.011l-0.895-2.506h-0.57v4.159h0.593v-2.501h0.012l0.906 2.501h0.557v-4.159h-0.593v2.506z"></path>
            <path d="M27.516 25.675l-0.477 1.654h-0.012l-0.477-1.654h-0.628l0.814 2.401v1.758h0.593v-1.758l0.814-2.401h-0.628z"></path>
            <path d="M4 31.008h0.286v0.801h0.194v-0.801h0.284v-0.164h-0.764v0.164z"></path>
            <path d="M6.401 30.844l-0.374 0.966h0.206l0.079-0.22h0.385l0.082 0.22h0.211l-0.383-0.966h-0.206zM6.37 31.428l0.131-0.358 0.131 0.358h-0.263z"></path>
            <path d="M8.775 31.454h0.223v0.124c-0.065 0.052-0.146 0.081-0.229 0.081-0.039 0.002-0.078-0.005-0.113-0.021s-0.067-0.040-0.091-0.071c-0.051-0.073-0.076-0.162-0.072-0.252 0-0.215 0.093-0.322 0.278-0.322 0.049-0.005 0.097 0.008 0.137 0.036s0.069 0.070 0.081 0.117l0.191-0.037c-0.041-0.189-0.177-0.284-0.409-0.284-0.124-0.003-0.245 0.041-0.338 0.124-0.049 0.048-0.086 0.106-0.11 0.17s-0.034 0.133-0.029 0.201c-0.006 0.132 0.039 0.262 0.124 0.362 0.047 0.049 0.105 0.087 0.168 0.111s0.131 0.035 0.199 0.030c0.151 0.004 0.298-0.051 0.409-0.153v-0.381h-0.418v0.163z"></path>
            <path d="M11.199 30.844h-0.196v0.966h0.677v-0.164h-0.481v-0.801z"></path>
            <path d="M13.248 30.844h-0.195v0.966h0.195v-0.966z"></path>
            <path d="M15.252 31.489l-0.396-0.645h-0.189v0.966h0.182v-0.631l0.388 0.631h0.194v-0.966h-0.179v0.645z"></path>
            <path d="M17.064 31.385h0.481v-0.164h-0.481v-0.212h0.518v-0.164h-0.713v0.966h0.733v-0.164h-0.538v-0.261z"></path>
            <path d="M21.456 31.225h-0.38v-0.381h-0.194v0.966h0.194v-0.422h0.38v0.422h0.194v-0.966h-0.194v0.381z"></path>
            <path d="M23.279 31.385h0.483v-0.164h-0.483v-0.212h0.519v-0.164h-0.713v0.966h0.732v-0.164h-0.538v-0.261z"></path>
            <path d="M25.75 31.385c0.168-0.026 0.254-0.115 0.254-0.269 0.005-0.041-0.001-0.083-0.018-0.12s-0.043-0.070-0.077-0.094c-0.087-0.044-0.185-0.064-0.283-0.057h-0.409v0.966h0.194v-0.404h0.038c0.041-0.003 0.083 0.005 0.121 0.021 0.028 0.017 0.052 0.042 0.069 0.071l0.211 0.307h0.232l-0.118-0.189c-0.052-0.093-0.125-0.173-0.214-0.232zM25.554 31.251h-0.144v-0.243h0.153c0.067-0.005 0.134 0.002 0.197 0.023 0.014 0.012 0.025 0.028 0.033 0.045s0.011 0.036 0.010 0.055c-0.001 0.019-0.006 0.037-0.015 0.054s-0.021 0.031-0.037 0.042c-0.064 0.020-0.131 0.027-0.197 0.023z"></path>
            <path d="M27.613 31.385h0.481v-0.164h-0.481v-0.212h0.519v-0.164h-0.715v0.966h0.733v-0.164h-0.538v-0.261z"></path>
        </symbol>
        <symbol id="icon-client3" viewBox="0 0 32 32">
            <path d="M5.311 30.414c0.011 0 0.023 0.003 0.033 0.007s0.020 0.010 0.027 0.017l0.156 0.15c-0.121 0.121-0.271 0.217-0.44 0.284-0.198 0.072-0.409 0.106-0.624 0.102-0.201 0.004-0.401-0.029-0.586-0.095-0.168-0.061-0.318-0.152-0.441-0.268-0.126-0.12-0.223-0.262-0.285-0.414-0.069-0.171-0.102-0.351-0.1-0.532-0.003-0.182 0.034-0.363 0.107-0.534 0.069-0.154 0.171-0.296 0.303-0.414 0.134-0.117 0.294-0.209 0.47-0.27 0.193-0.065 0.397-0.097 0.604-0.095 0.192-0.004 0.383 0.025 0.561 0.087 0.155 0.058 0.297 0.139 0.421 0.24l-0.131 0.16c-0.009 0.011-0.021 0.021-0.033 0.029-0.015 0.009-0.034 0.013-0.053 0.012-0.021-0.001-0.040-0.008-0.056-0.017l-0.071-0.042-0.098-0.055c-0.042-0.020-0.086-0.038-0.131-0.053-0.058-0.018-0.118-0.032-0.178-0.042-0.077-0.012-0.154-0.018-0.232-0.017-0.149-0.002-0.296 0.023-0.434 0.072-0.128 0.045-0.245 0.114-0.34 0.2-0.098 0.092-0.172 0.201-0.221 0.319-0.055 0.136-0.082 0.278-0.080 0.422-0.002 0.146 0.024 0.291 0.080 0.428 0.048 0.118 0.121 0.225 0.217 0.318 0.089 0.087 0.2 0.153 0.325 0.197 0.128 0.046 0.264 0.069 0.403 0.068 0.080 0.001 0.16-0.004 0.238-0.013 0.129-0.014 0.252-0.053 0.361-0.114 0.055-0.031 0.106-0.067 0.154-0.105 0.020-0.017 0.046-0.026 0.074-0.027z"></path>
            <path d="M9.827 29.663c0.003 0.181-0.033 0.36-0.105 0.528-0.064 0.153-0.164 0.293-0.295 0.41s-0.288 0.209-0.462 0.269c-0.383 0.127-0.806 0.127-1.189 0-0.173-0.061-0.329-0.153-0.459-0.27-0.13-0.12-0.232-0.26-0.297-0.414-0.141-0.343-0.141-0.716 0-1.059 0.067-0.154 0.168-0.296 0.297-0.416 0.131-0.113 0.287-0.201 0.459-0.26 0.382-0.129 0.807-0.129 1.189 0 0.174 0.061 0.33 0.153 0.461 0.27 0.129 0.118 0.229 0.257 0.296 0.409 0.072 0.17 0.108 0.35 0.105 0.532zM9.416 29.663c0.003-0.144-0.022-0.288-0.074-0.424-0.044-0.118-0.115-0.225-0.209-0.318-0.091-0.088-0.204-0.156-0.33-0.2-0.278-0.093-0.586-0.093-0.864 0-0.126 0.044-0.239 0.113-0.33 0.2-0.095 0.091-0.168 0.2-0.211 0.318-0.1 0.277-0.1 0.573 0 0.85 0.044 0.118 0.116 0.226 0.211 0.318 0.092 0.087 0.204 0.154 0.33 0.199 0.279 0.090 0.585 0.090 0.864 0 0.126-0.044 0.239-0.112 0.33-0.199 0.094-0.092 0.165-0.2 0.209-0.318 0.053-0.136 0.077-0.28 0.074-0.424z"></path>
            <path d="M12.908 30.108l0.041 0.095c0.016-0.034 0.029-0.065 0.045-0.095 0.015-0.032 0.032-0.063 0.051-0.093l1-1.578c0.020-0.027 0.037-0.044 0.056-0.049 0.026-0.007 0.055-0.010 0.082-0.008h0.296v2.567h-0.35v-1.887c0-0.024 0-0.051 0-0.080-0.002-0.029-0.002-0.059 0-0.088l-1.005 1.6c-0.013 0.024-0.033 0.044-0.058 0.058s-0.056 0.022-0.086 0.022h-0.056c-0.030 0-0.060-0.007-0.086-0.021s-0.046-0.035-0.058-0.058l-1.034-1.61c0 0.030 0 0.061 0 0.091s0 0.057 0 0.082v1.887h-0.338v-2.562h0.296c0.027-0.002 0.056 0.002 0.082 0.008 0.024 0.010 0.043 0.028 0.055 0.049l1.020 1.579c0.020 0.029 0.037 0.060 0.051 0.091z"></path>
            <path d="M16.668 29.981v0.961h-0.391v-2.563h0.872c0.165-0.003 0.328 0.016 0.487 0.056 0.126 0.031 0.244 0.086 0.344 0.16 0.087 0.070 0.153 0.155 0.196 0.251 0.046 0.104 0.069 0.216 0.067 0.328 0.002 0.112-0.023 0.224-0.072 0.328-0.047 0.098-0.12 0.186-0.211 0.257-0.101 0.077-0.218 0.135-0.346 0.169-0.152 0.042-0.312 0.062-0.472 0.059l-0.473-0.007zM16.668 29.705h0.473c0.103 0.001 0.205-0.012 0.303-0.039 0.081-0.024 0.155-0.061 0.219-0.11 0.058-0.047 0.104-0.105 0.133-0.169 0.032-0.069 0.048-0.142 0.047-0.216 0.005-0.072-0.008-0.142-0.040-0.209s-0.077-0.126-0.136-0.175c-0.15-0.102-0.337-0.151-0.526-0.137h-0.473v1.056z"></path>
            <path d="M21.924 30.946h-0.309c-0.031 0.001-0.061-0.008-0.086-0.024-0.023-0.016-0.040-0.037-0.051-0.059l-0.265-0.62h-1.336l-0.276 0.62c-0.010 0.023-0.027 0.042-0.049 0.057-0.024 0.017-0.056 0.026-0.088 0.025h-0.309l1.173-2.567h0.407l1.189 2.567zM19.988 29.992h1.103l-0.465-1.045c-0.036-0.079-0.065-0.159-0.088-0.241l-0.045 0.135c-0.014 0.040-0.029 0.078-0.043 0.109l-0.461 1.043z"></path>
            <path d="M23.613 28.391c0.024 0.011 0.043 0.027 0.058 0.046l1.711 1.935c0-0.030 0-0.061 0-0.090s0-0.057 0-0.085v-1.817h0.35v2.567h-0.196c-0.027 0.001-0.056-0.005-0.080-0.015-0.024-0.012-0.045-0.028-0.062-0.047l-1.709-1.933c0.002 0.029 0.002 0.059 0 0.088 0 0.029 0 0.055 0 0.078v1.83h-0.35v-2.567h0.207c0.024-0.001 0.048 0.004 0.071 0.012z"></path>
            <path d="M28.614 29.925v1.019h-0.391v-1.019l-1.081-1.545h0.35c0.030-0.002 0.060 0.007 0.084 0.022 0.022 0.017 0.040 0.036 0.053 0.057l0.677 0.997c0.027 0.042 0.051 0.082 0.071 0.119s0.035 0.073 0.049 0.109l0.051-0.11c0.019-0.040 0.041-0.079 0.067-0.118l0.666-1.004c0.014-0.020 0.031-0.039 0.051-0.055 0.024-0.018 0.054-0.026 0.084-0.025h0.354l-1.083 1.553z"></path>
            <path d="M12.715 24.072c0.17 0.019 0.343 0.034 0.516 0.048 2.638-1.025 4.87-2.704 6.416-4.824s2.339-4.591 2.279-7.102l-2.907-2.526c0.591 2.673 0.314 5.436-0.799 7.98s-3.019 4.769-5.505 6.425z"></path>
            <path d="M11.677 23.954l0.078 0.013c2.656-1.651 4.681-3.956 5.813-6.616s1.32-5.557 0.537-8.311l-4.141-3.598c1.675 2.957 2.349 6.267 1.944 9.544s-1.872 6.387-4.232 8.968z"></path>
            <path d="M25.72 15.159c-0.703 2.759-2.412 5.246-4.872 7.094-0.718 0.542-1.494 1.026-2.314 1.444 2.003-0.512 3.845-1.416 5.382-2.644s2.729-2.745 3.485-4.437l-1.679-1.458z"></path>
            <path d="M25.062 14.752l-2.392-2.077c-0.046 2.369-0.821 4.683-2.245 6.704s-3.445 3.672-5.851 4.785h0.011c0.536 0 1.072-0.028 1.606-0.083 2.249-0.798 4.237-2.067 5.785-3.695s2.608-3.562 3.085-5.633z"></path>
            <path d="M12.023 3.925l-2.853-2.482c-2.55 0.856-4.744 2.361-6.293 4.318s-2.382 4.275-2.391 6.65v0c0.009 2.625 1.026 5.172 2.889 7.238s4.466 3.533 7.397 4.169c2.616-2.769 4.148-6.192 4.373-9.769s-0.87-7.124-3.124-10.124z"></path>
            <path d="M31.652 14.37c-0.010-3.114-1.439-6.098-3.973-8.299s-5.969-3.443-9.553-3.452c-1.656-0.002-3.298 0.264-4.843 0.783l17.465 15.175c0.598-1.341 0.904-2.767 0.904-4.206z"></path>
        </symbol>
        <symbol id="icon-client4" viewBox="0 0 32 32">
            <path d="M4.931 13.038h-0.001c-0.899 0-1.629 0.648-1.629 1.447v0.001c0 0.8 0.729 1.447 1.629 1.447h0.001c0.899 0 1.629-0.648 1.629-1.447v-0.001c0-0.8-0.729-1.447-1.629-1.447z"></path>
            <path d="M16.952 12.575c-0.002-1.11-0.5-2.175-1.383-2.96s-2.081-1.227-3.33-1.23v0c-1.249 0.002-2.448 0.444-3.331 1.229s-1.381 1.85-1.384 2.96v6.122c0 0 9.427-0.933 9.428-6.121v-0.001z"></path>
            <path d="M0 20.707c0.002 0.772 0.349 1.513 0.963 2.059s1.447 0.854 2.317 0.857c0.869-0.002 1.702-0.31 2.316-0.856s0.961-1.286 0.963-2.059v-4.26c0 0-6.56 0.65-6.56 4.259zM3.28 21.471c-0.17 0-0.336-0.045-0.477-0.128s-0.252-0.203-0.317-0.343c-0.065-0.139-0.082-0.293-0.049-0.441s0.115-0.284 0.235-0.391 0.273-0.179 0.44-0.209c0.166-0.030 0.339-0.014 0.496 0.043s0.291 0.156 0.385 0.281c0.095 0.126 0.145 0.273 0.145 0.424 0 0.1-0.022 0.2-0.064 0.293s-0.106 0.177-0.186 0.249c-0.080 0.071-0.175 0.128-0.279 0.166s-0.216 0.059-0.329 0.059v-0.003z"></path>
            <path d="M9.909 21.050h-0.633v0.654h-0.33v-1.6h1.042v0.267h-0.712v0.413h0.633v0.266zM11.493 20.94c0 0.158-0.028 0.295-0.084 0.415s-0.135 0.21-0.24 0.275c-0.103 0.064-0.222 0.096-0.356 0.096-0.132 0-0.251-0.032-0.355-0.096s-0.185-0.155-0.242-0.273c-0.057-0.119-0.086-0.255-0.087-0.409v-0.079c0-0.158 0.028-0.296 0.085-0.416s0.137-0.212 0.241-0.276c0.104-0.064 0.223-0.096 0.356-0.096s0.252 0.032 0.355 0.096c0.104 0.064 0.184 0.156 0.241 0.276 0.057 0.119 0.086 0.257 0.086 0.414v0.071zM11.16 20.868c0-0.168-0.030-0.295-0.090-0.383s-0.146-0.131-0.257-0.131c-0.111 0-0.196 0.043-0.256 0.129s-0.091 0.212-0.091 0.378v0.078c0 0.163 0.030 0.29 0.090 0.38s0.147 0.135 0.259 0.135c0.111 0 0.195-0.043 0.255-0.129s0.090-0.214 0.090-0.38v-0.078zM12.563 21.284c0-0.062-0.022-0.11-0.066-0.143s-0.123-0.069-0.237-0.105c-0.114-0.037-0.205-0.074-0.271-0.11-0.182-0.098-0.273-0.23-0.273-0.397 0-0.087 0.024-0.163 0.072-0.231s0.119-0.121 0.21-0.16c0.092-0.038 0.194-0.057 0.308-0.057s0.216 0.021 0.306 0.063c0.089 0.041 0.159 0.099 0.208 0.175s0.075 0.161 0.075 0.257h-0.33c0-0.073-0.023-0.13-0.069-0.17s-0.111-0.062-0.194-0.062c-0.081 0-0.143 0.017-0.188 0.052s-0.067 0.078-0.067 0.134c0 0.052 0.026 0.096 0.078 0.131s0.13 0.068 0.232 0.099c0.188 0.057 0.324 0.127 0.41 0.21s0.129 0.188 0.129 0.312c0 0.138-0.052 0.247-0.157 0.326-0.105 0.078-0.246 0.118-0.423 0.118-0.123 0-0.235-0.022-0.336-0.067s-0.178-0.107-0.232-0.186c-0.053-0.078-0.079-0.169-0.079-0.273h0.331c0 0.177 0.105 0.265 0.317 0.265 0.078 0 0.14-0.016 0.184-0.047s0.066-0.077 0.066-0.134zM14.322 20.371h-0.49v1.333h-0.33v-1.333h-0.483v-0.267h1.303v0.267zM15.474 21.011h-0.633v0.429h0.743v0.265h-1.073v-1.6h1.070v0.267h-0.74v0.382h0.633v0.258zM16.37 21.118h-0.262v0.586h-0.33v-1.6h0.595c0.189 0 0.335 0.042 0.437 0.127s0.154 0.203 0.154 0.357c0 0.109-0.024 0.2-0.071 0.274s-0.118 0.13-0.214 0.174l0.346 0.654v0.015h-0.354l-0.3-0.586zM16.107 20.851h0.266c0.083 0 0.147-0.021 0.192-0.063s0.068-0.101 0.068-0.175c0-0.075-0.022-0.135-0.065-0.178-0.042-0.043-0.108-0.065-0.197-0.065h-0.265v0.48zM18.105 21.14v0.564h-0.33v-1.6h0.624c0.12 0 0.225 0.022 0.317 0.066s0.162 0.106 0.211 0.188c0.049 0.081 0.074 0.172 0.074 0.276 0 0.157-0.054 0.281-0.161 0.371s-0.256 0.135-0.445 0.135h-0.289zM18.105 20.873h0.294c0.087 0 0.154-0.021 0.199-0.062s0.069-0.099 0.069-0.176c0-0.078-0.023-0.142-0.069-0.19s-0.11-0.073-0.191-0.075h-0.302v0.502zM20.191 21.011h-0.633v0.429h0.743v0.265h-1.073v-1.6h1.070v0.267h-0.74v0.382h0.633v0.258zM21.72 20.371h-0.49v1.333h-0.33v-1.333h-0.483v-0.267h1.303v0.267zM22.872 21.011h-0.633v0.429h0.743v0.265h-1.072v-1.6h1.070v0.267h-0.74v0.382h0.633v0.258zM23.767 21.118h-0.262v0.586h-0.33v-1.6h0.595c0.189 0 0.335 0.042 0.437 0.127s0.154 0.203 0.154 0.357c0 0.109-0.024 0.2-0.071 0.274s-0.118 0.13-0.214 0.174l0.346 0.654v0.015h-0.354l-0.3-0.586zM23.505 20.851h0.266c0.083 0 0.147-0.021 0.192-0.063s0.068-0.101 0.068-0.175c0-0.075-0.022-0.135-0.065-0.178-0.042-0.043-0.108-0.065-0.197-0.065h-0.265v0.48zM25.442 21.284c0-0.062-0.022-0.11-0.066-0.143s-0.123-0.069-0.237-0.105c-0.114-0.037-0.205-0.074-0.271-0.11-0.182-0.098-0.273-0.23-0.273-0.397 0-0.087 0.024-0.163 0.072-0.231s0.119-0.121 0.21-0.16c0.092-0.038 0.194-0.057 0.308-0.057s0.216 0.021 0.306 0.063c0.090 0.041 0.159 0.099 0.208 0.175s0.075 0.161 0.075 0.257h-0.33c0-0.073-0.023-0.13-0.069-0.17s-0.111-0.062-0.194-0.062c-0.081 0-0.143 0.017-0.188 0.052s-0.067 0.078-0.067 0.134c0 0.052 0.026 0.096 0.078 0.131 0.053 0.035 0.13 0.068 0.232 0.099 0.188 0.057 0.324 0.127 0.41 0.21s0.128 0.188 0.128 0.312c0 0.138-0.052 0.247-0.157 0.326-0.105 0.078-0.246 0.118-0.423 0.118-0.123 0-0.235-0.022-0.336-0.067s-0.178-0.107-0.232-0.186c-0.053-0.078-0.079-0.169-0.079-0.273h0.331c0 0.177 0.105 0.265 0.317 0.265 0.078 0 0.139-0.016 0.184-0.047s0.066-0.077 0.066-0.134z"></path>
        </symbol>
        <symbol id="icon-client5" viewBox="0 0 32 32">
            <path d="M2.41 23.719c0.124 0.14 0.189 0.316 0.186 0.495 0.006 0.118-0.016 0.234-0.066 0.342s-0.126 0.205-0.222 0.283c-0.24 0.166-0.537 0.247-0.837 0.228h-1.471v-3.137h1.442c0.284-0.017 0.566 0.057 0.798 0.208 0.093 0.071 0.167 0.162 0.215 0.263s0.071 0.213 0.064 0.324c0.008 0.173-0.051 0.343-0.167 0.48-0.112 0.125-0.266 0.211-0.438 0.245 0.195 0.033 0.371 0.128 0.497 0.268zM0.685 23.246h0.616c0.14 0.010 0.279-0.028 0.391-0.104 0.046-0.039 0.083-0.086 0.105-0.139s0.032-0.11 0.027-0.167c0.004-0.057-0.005-0.114-0.028-0.167s-0.058-0.1-0.103-0.14c-0.116-0.079-0.26-0.116-0.403-0.106h-0.606v0.823zM1.753 24.449c0.049-0.039 0.089-0.089 0.114-0.144s0.036-0.115 0.032-0.175c0.004-0.060-0.007-0.121-0.034-0.177s-0.066-0.106-0.115-0.145c-0.121-0.082-0.269-0.122-0.418-0.113h-0.646v0.863h0.654c0.147 0.008 0.293-0.030 0.414-0.109z"></path>
            <path d="M5.356 25.068l-0.801-1.226h-0.301v1.226h-0.69v-3.137h1.305c0.329-0.021 0.654 0.074 0.909 0.266 0.182 0.17 0.292 0.394 0.31 0.633s-0.058 0.474-0.214 0.665c-0.161 0.169-0.381 0.281-0.623 0.319l0.854 1.253h-0.75zM4.253 23.414h0.564c0.391 0 0.587-0.159 0.587-0.475 0.004-0.065-0.007-0.13-0.031-0.19s-0.063-0.116-0.112-0.162c-0.124-0.095-0.283-0.14-0.444-0.127h-0.571l0.007 0.955z"></path>
            <path d="M9.125 24.437h-1.375l-0.243 0.631h-0.723l1.262-3.102h0.781l1.257 3.102h-0.723l-0.237-0.631zM8.941 23.961l-0.502-1.324-0.502 1.324h1.004z"></path>
            <path d="M13.843 25.068h-0.685l-1.534-2.134v2.134h-0.683v-3.137h0.683l1.534 2.145v-2.145h0.685v3.137z"></path>
            <path d="M17.75 24.317c-0.141 0.237-0.357 0.429-0.619 0.553-0.298 0.138-0.629 0.205-0.962 0.198h-1.218v-3.137h1.218c0.333-0.008 0.663 0.058 0.962 0.193 0.262 0.121 0.478 0.312 0.619 0.547 0.141 0.255 0.214 0.537 0.214 0.823s-0.074 0.568-0.214 0.823zM16.967 24.242c0.196-0.208 0.303-0.474 0.303-0.749s-0.107-0.54-0.303-0.749c-0.236-0.189-0.544-0.284-0.857-0.266h-0.476v2.031h0.476c0.313 0.018 0.621-0.078 0.857-0.266z"></path>
            <path d="M9.554 4.481c0 0 8.836 3.054 8.648 7.474v7.475c0 0-8.829-3.056-8.645-7.475l-0.004-7.474z"></path>
            <path d="M26.074 17.681c1.668-1.052 3.599-1.703 5.614-1.894v-2.34c-2.322 0.819-4.291 2.305-5.614 4.234z"></path>
            <path d="M25.072 18.386c1.366-2.518 3.734-4.461 6.617-5.43v-6.743c0 0-12.583 4.351-12.317 10.645v10.643c0 0 0.56-0.195 1.443-0.56 0-0.34 0-0.683 0.040-1.028 0.26-2.922 1.778-5.63 4.218-7.527z"></path>
            <path d="M23.874 22.34c0.066-0.738 0.214-1.468 0.441-2.179-1.52 1.639-2.439 3.673-2.631 5.816-0.019 0.202-0.028 0.405-0.034 0.613 0.714-0.314 1.546-0.706 2.42-1.168-0.223-1.014-0.289-2.051-0.196-3.082z"></path>
            <path d="M24.375 22.378c-0.084 0.932-0.031 1.871 0.156 2.791 3.438-1.884 7.301-4.794 7.152-8.311v-0.307c-2.457 0.252-4.755 1.235-6.541 2.798-0.418 0.969-0.676 1.99-0.767 3.028z"></path>
        </symbol>
        <symbol id="icon-client6" viewBox="0 0 32 32">
            <path d="M16.107 15.629c-0.15-0.2-0.223-0.437-0.205-0.675v-0.979c0-0.3 0.068-0.528 0.204-0.684s0.37-0.234 0.702-0.233c0.311 0 0.533 0.066 0.663 0.199 0.143 0.17 0.212 0.377 0.196 0.586v0.23h-0.557v-0.233c0.002-0.076-0.003-0.152-0.016-0.228-0.008-0.052-0.036-0.099-0.080-0.136-0.057-0.039-0.129-0.058-0.202-0.053-0.076-0.005-0.152 0.015-0.212 0.056-0.049 0.040-0.081 0.092-0.092 0.149-0.016 0.080-0.023 0.161-0.022 0.242v1.188c-0.009 0.115 0.016 0.229 0.072 0.334 0.028 0.035 0.066 0.063 0.111 0.081s0.095 0.024 0.144 0.019c0.071 0.005 0.142-0.014 0.197-0.054 0.045-0.039 0.075-0.090 0.083-0.144 0.013-0.079 0.019-0.159 0.017-0.238v-0.241h0.557v0.22c0.016 0.218-0.052 0.434-0.192 0.616-0.128 0.146-0.346 0.218-0.667 0.218s-0.563-0.078-0.7-0.239z"></path>
            <path d="M18.428 15.639c-0.141-0.152-0.211-0.374-0.211-0.669v-1.030c0-0.291 0.070-0.511 0.211-0.661s0.376-0.224 0.706-0.223c0.328 0 0.562 0.075 0.703 0.223s0.212 0.37 0.212 0.661v1.030c0 0.291-0.072 0.514-0.214 0.667s-0.376 0.23-0.7 0.23c-0.324 0-0.564-0.078-0.706-0.229zM19.393 15.392c0.051-0.096 0.074-0.2 0.067-0.305v-1.261c0.007-0.103-0.016-0.205-0.066-0.299-0.028-0.036-0.068-0.064-0.114-0.082s-0.097-0.024-0.147-0.018c-0.050-0.006-0.101 0-0.147 0.018s-0.086 0.046-0.115 0.082c-0.051 0.093-0.074 0.196-0.067 0.299v1.267c-0.007 0.105 0.016 0.21 0.067 0.305 0.032 0.032 0.073 0.058 0.117 0.075s0.094 0.027 0.143 0.027c0.049 0 0.098-0.009 0.143-0.027s0.085-0.043 0.117-0.075v-0.006z"></path>
            <path d="M20.719 13.087h0.6l0.451 1.9 0.461-1.9h0.584l0.059 2.743h-0.432l-0.046-1.907-0.445 1.907h-0.346l-0.461-1.913-0.043 1.913h-0.436l0.054-2.743z"></path>
            <path d="M23.547 13.087h0.935c0.538 0 0.808 0.26 0.808 0.779 0 0.497-0.283 0.746-0.85 0.745h-0.319v1.219h-0.577l0.003-2.743zM24.345 14.26c0.057 0.006 0.115 0.002 0.17-0.013s0.105-0.040 0.148-0.074c0.066-0.093 0.096-0.202 0.083-0.31 0.003-0.084-0.006-0.167-0.028-0.249-0.008-0.027-0.022-0.053-0.043-0.075s-0.044-0.041-0.073-0.055c-0.080-0.033-0.169-0.048-0.257-0.044h-0.224v0.82h0.224z"></path>
            <path d="M26.121 13.087h0.619l0.636 2.743h-0.538l-0.126-0.632h-0.553l-0.129 0.632h-0.546l0.636-2.743zM26.651 14.88l-0.216-1.152-0.216 1.152h0.431z"></path>
            <path d="M27.89 13.087h0.404l0.773 1.565v-1.565h0.479v2.743h-0.384l-0.778-1.633v1.633h-0.495l0.001-2.743z"></path>
            <path d="M30.667 14.784l-0.643-1.694h0.541l0.392 1.088 0.368-1.088h0.53l-0.635 1.694v1.046h-0.554v-1.046z"></path>
            <path d="M16.998 17.030v0.143h-0.471v1.115h-0.197v-1.115h-0.473v-0.143h1.141z"></path>
            <path d="M18.474 18.288h-0.152c-0.015 0.001-0.031-0.003-0.043-0.012-0.011-0.007-0.021-0.017-0.025-0.029l-0.136-0.299h-0.653l-0.136 0.299c-0.004 0.012-0.011 0.024-0.021 0.034-0.012 0.008-0.027 0.012-0.043 0.012h-0.152l0.577-1.258h0.201l0.584 1.253zM17.518 17.821h0.544l-0.231-0.512c-0.017-0.039-0.032-0.078-0.043-0.118-0.008 0.024-0.015 0.047-0.022 0.067l-0.021 0.053-0.228 0.511z"></path>
            <path d="M19.468 18.165c0.036 0.001 0.072 0.001 0.108 0 0.031-0.003 0.062-0.008 0.092-0.015 0.028-0.006 0.056-0.014 0.083-0.023 0.025-0.009 0.051-0.020 0.077-0.031v-0.283h-0.231c-0.006 0-0.011-0-0.017-0.002s-0.010-0.004-0.014-0.008c-0.004-0.003-0.007-0.006-0.009-0.011s-0.003-0.008-0.003-0.012v-0.096h0.448v0.482c-0.037 0.022-0.075 0.043-0.116 0.060s-0.084 0.032-0.128 0.043c-0.047 0.012-0.096 0.021-0.144 0.026-0.056 0.005-0.112 0.008-0.169 0.008-0.099 0.001-0.198-0.015-0.291-0.047-0.086-0.030-0.165-0.075-0.231-0.131-0.064-0.057-0.115-0.125-0.149-0.199-0.036-0.084-0.054-0.172-0.053-0.261-0.001-0.090 0.016-0.179 0.052-0.263 0.033-0.075 0.084-0.142 0.149-0.199s0.144-0.101 0.231-0.13c0.099-0.032 0.203-0.048 0.309-0.047 0.053 0 0.107 0.004 0.16 0.011 0.047 0.007 0.093 0.017 0.138 0.032 0.040 0.013 0.079 0.030 0.116 0.050 0.035 0.020 0.069 0.042 0.1 0.066l-0.055 0.078c-0.004 0.007-0.011 0.013-0.019 0.017s-0.017 0.007-0.026 0.007c-0.013-0-0.025-0.004-0.036-0.010-0.017-0.008-0.036-0.018-0.056-0.030-0.024-0.013-0.051-0.025-0.077-0.034-0.034-0.012-0.070-0.021-0.106-0.028-0.048-0.008-0.097-0.011-0.147-0.011-0.076-0.001-0.152 0.011-0.223 0.035-0.064 0.022-0.122 0.056-0.17 0.1-0.048 0.045-0.085 0.098-0.107 0.157-0.052 0.136-0.052 0.283 0 0.419 0.025 0.059 0.064 0.113 0.116 0.159 0.047 0.043 0.105 0.077 0.169 0.1 0.074 0.022 0.151 0.030 0.228 0.025z"></path>
            <path d="M21.307 18.144h0.63v0.143h-0.822v-1.258h0.197l-0.005 1.115z"></path>
            <path d="M22.593 18.288h-0.197v-1.258h0.197v1.258z"></path>
            <path d="M23.327 17.035c0.012 0.006 0.022 0.013 0.030 0.023l0.843 0.949c-0.001-0.015-0.001-0.030 0-0.045s0-0.028 0-0.041v-0.896h0.172v1.263h-0.099c-0.015 0.001-0.030-0.001-0.043-0.007s-0.022-0.014-0.031-0.024l-0.843-0.948c0 0.015 0 0.029 0 0.043s0 0.027 0 0.039v0.896h-0.165v-1.258h0.103c0.011 0 0.022 0.002 0.032 0.006z"></path>
            <path d="M25.824 17.030v0.139h-0.699v0.416h0.566v0.133h-0.566v0.429h0.699v0.139h-0.902v-1.255h0.902z"></path>
            <path d="M5.15 9.26l8.761 2.148v7.526l-8.761-2.146v-7.527zM4.587 8.618v8.534l9.884 2.423v-8.533l-9.884-2.424z"></path>
            <path d="M9.885 23.537l-9.885-2.426v-8.533l9.885 2.424v8.534z"></path>
            <path d="M4.751 9.163l8.647 2.121-3.677 3.176-8.648-2.122 3.679-3.175zM4.587 8.618l-4.587 3.96 9.885 2.424 4.586-3.96-9.884-2.424z"></path>
            <path d="M10.441 23.057l4.030-3.48-4.030-0.989v4.47z"></path>
        </symbol>
        <symbol id="icon-icon-send" viewBox="0 0 32 32">
            <path d="M32 0l-32 18 10.227 3.788 15.773-14.788-11.998 16.186 0.010 0.004-0.012-0.004v8.814l5.735-6.691 7.265 2.691 5-28z"></path>
        </symbol>
        <symbol id="icon-input-mail" viewBox="0 0 43 32">
            <path d="M37.333 0h-32c-2.2 0-3.98 1.8-3.98 4l-0.020 24c0 2.2 1.8 4 4 4h32c2.2 0 4-1.8 4-4v-24c0-2.2-1.8-4-4-4zM36.533 8.5l-14.14 8.84c-0.64 0.4-1.48 0.4-2.12 0l-14.14-8.84c-0.5-0.32-0.8-0.86-0.8-1.44 0-1.34 1.46-2.14 2.6-1.44l13.4 8.38 13.4-8.38c1.14-0.7 2.6 0.1 2.6 1.44 0 0.58-0.3 1.12-0.8 1.44z"></path>
        </symbol>
        <symbol id="icon-input-name" viewBox="0 0 32 32">
            <path d="M16 16c4.42 0 8-3.58 8-8s-3.58-8-8-8c-4.42 0-8 3.58-8 8s3.58 8 8 8zM16 20c-5.34 0-16 2.68-16 8v2c0 1.1 0.9 2 2 2h28c1.1 0 2-0.9 2-2v-2c0-5.32-10.66-8-16-8z"></path>
        </symbol>
        <symbol id="icon-input-phone" viewBox="0 0 32 32">
            <path d="M27.419 20.852l-4.201-0.48c-1.009-0.116-2.002 0.232-2.713 0.943l-3.044 3.044c-4.681-2.382-8.519-6.203-10.901-10.901l3.060-3.060c0.711-0.711 1.059-1.704 0.943-2.713l-0.48-4.168c-0.198-1.671-1.604-2.928-3.292-2.928h-2.862c-1.869 0-3.424 1.555-3.308 3.424 0.877 14.126 12.174 25.407 26.284 26.284 1.869 0.116 3.424-1.439 3.424-3.308v-2.861c0.016-1.671-1.241-3.077-2.911-3.275z"></path>
        </symbol>
        <symbol id="icon-checkbox" viewBox="0 0 42 32">
            <path d="M6.263 15.205l-0.22-0.21-3.307 3.132 11.651 11.114 24.477-23.351-3.285-3.134-21.192 20.197-8.124-7.75z"></path>
        </symbol>
    </defs>
</svg>